<?xml version="1.0" standalone="no"?>
<!DOCTYPE svg PUBLIC "-//W3C//DTD SVG 20010904//EN"
 "http://www.w3.org/TR/2001/REC-SVG-20010904/DTD/svg10.dtd">
<svg version="1.0" xmlns="http://www.w3.org/2000/svg"
 width="1912.000000pt" height="1912.000000pt" viewBox="0 0 1912.000000 1912.000000"
 preserveAspectRatio="xMidYMid meet">
<metadata>
Created by potrace 1.11, written by Peter Selinger 2001-2013
</metadata>
<g transform="translate(0.000000,1912.000000) scale(0.100000,-0.100000)"
fill="#000000" stroke="none">
<path d="M3018 19109 c-663 -40 -1297 -292 -1824 -725 -192 -158 -405 -386
-547 -587 -319 -450 -498 -909 -574 -1467 -17 -130 -18 -400 -18 -6770 0
-6370 1 -6640 18 -6770 52 -386 146 -696 308 -1025 387 -785 1085 -1372 1934
-1630 143 -43 362 -88 545 -112 128 -17 485 -18 6700 -18 6215 0 6572 1 6700
18 382 50 689 139 1007 292 647 312 1159 816 1472 1450 162 329 256 639 308
1025 17 130 18 400 18 6770 0 6370 -1 6640 -18 6770 -52 386 -146 696 -308
1025 -387 785 -1085 1372 -1934 1630 -137 41 -355 87 -535 112 -117 16 -537
17 -6625 19 -3575 0 -6557 -2 -6627 -7z m5807 -5428 l110 -6 242 -670 c133
-368 317 -880 410 -1137 116 -323 170 -462 176 -450 12 27 697 2162 711 2217
l13 50 2066 3 2065 2 10 -27 c5 -16 568 -1594 1251 -3507 1068 -2992 1240
-3482 1229 -3497 -7 -10 -206 -264 -443 -563 l-430 -545 -1430 2 -1430 2 -137
385 c-76 212 -242 678 -369 1035 -127 358 -235 656 -239 664 -5 10 -26 -40
-60 -145 -28 -87 -184 -561 -347 -1051 l-295 -893 -2092 0 -2092 0 -419 1139
c-231 627 -422 1138 -425 1135 -2 -3 -165 -515 -360 -1137 l-356 -1132 -2083
-3 c-1665 -2 -2082 0 -2079 10 3 7 607 1835 1344 4062 1096 3312 1343 4050
1359 4057 23 9 3935 10 4100 0z"/>
</g>
</svg>
